<?xml version="1.0" encoding="utf-8"?>
<!-- Generator: Adobe Illustrator 25.4.1, SVG Export Plug-In . SVG Version: 6.00 Build 0)  -->
<svg version="1.1" id="Capa_1" xmlns="http://www.w3.org/2000/svg" xmlns:xlink="http://www.w3.org/1999/xlink" x="0px" y="0px"
	 viewBox="0 0 853.31 234.39" style="enable-background:new 0 0 853.31 234.39;" xml:space="preserve">
<style type="text/css">
	.st0{fill:#094893;}
</style>
<g>
	<g>
		<path class="st0" d="M103.41,57.78v20.68H79.12V56.46c0-20.68-8.21-33.16-26.92-33.16c-18.38,0-26.92,12.47-26.92,33.16v121.46
			c0,20.68,8.54,33.16,26.92,33.16c18.71,0,26.92-12.47,26.92-33.16v-29.87h24.29v28.56c0,34.8-16.41,57.78-51.87,57.78
			C16.41,234.39,0,211.41,0,176.61V57.78C0,22.98,16.41,0,51.54,0C86.99,0,103.41,22.98,103.41,57.78z"/>
		<path class="st0" d="M152.32,2.3v229.79h-25.61V2.3H152.32z"/>
		<path class="st0" d="M278.04,57.45v6.24h-24.29v-7.55c0-20.68-7.88-32.83-26.26-32.83c-18.38,0-26.26,12.15-26.26,32.5
			c0,51.54,77.15,56.46,77.15,121.13c0,34.8-16.74,57.45-51.87,57.45s-51.54-22.65-51.54-57.45v-13.13h23.96v14.44
			c0,20.68,8.54,32.83,26.92,32.83s26.92-12.15,26.92-32.83c0-51.21-76.82-56.14-76.82-120.81C175.95,21.99,192.36,0,226.83,0
			C261.63,0,278.04,22.65,278.04,57.45z"/>
		<path class="st0" d="M298.72,57.78c0-35.13,17.4-57.78,52.52-57.78c35.45,0,52.85,22.65,52.85,57.78v118.84
			c0,34.8-17.4,57.78-52.85,57.78c-35.12,0-52.52-22.98-52.52-57.78V57.78z M324,177.93c0,21.01,8.86,33.16,27.25,33.16
			c18.71,0,27.25-12.15,27.25-33.16V56.46c0-20.68-8.54-33.16-27.25-33.16c-18.38,0-27.25,12.47-27.25,33.16V177.93z"/>
	</g>
	<path class="st0" d="M434.76,13.92v92.17h-6.06V13.92H434.76z"/>
	<path class="st0" d="M450.82,106.09h-5.53V13.92h7.9l27.65,77.81V13.92h5.53v92.17h-6.71l-28.83-82.16V106.09z"/>
	<path class="st0" d="M502.3,106.09h-5.53V13.92h7.9l27.65,77.81V13.92h5.53v92.17h-6.72L502.3,23.93V106.09z"/>
	<path class="st0" d="M547.86,36.44c0-13.43,6.19-23.31,20.14-23.31c14.22,0,20.41,9.88,20.41,23.31v47.14
		c0,13.43-6.19,23.31-20.41,23.31c-13.96,0-20.14-9.88-20.14-23.31V36.44z M553.92,83.97c0,10.01,3.95,17.38,14.09,17.38
		c10.27,0,14.35-7.37,14.35-17.38V36.04c0-10.01-4.08-17.38-14.35-17.38c-10.14,0-14.09,7.37-14.09,17.38V83.97z"/>
	<path class="st0" d="M603.16,13.92l18.7,85.19l18.7-85.19h5.66l-20.01,92.17h-8.95l-20.28-92.17H603.16z"/>
	<path class="st0" d="M657.96,85.68l-4.61,20.41h-5.53l20.15-92.3h8.82l20.54,92.3h-6.06l-4.61-20.41H657.96z M658.88,80.41h26.86
		l-13.56-59.65L658.88,80.41z"/>
	<path class="st0" d="M713.08,106.09V19.45h-18.7v-5.53h43.58v5.53h-18.83v86.64H713.08z"/>
	<path class="st0" d="M751.53,13.92v92.17h-6.06V13.92H751.53z"/>
	<path class="st0" d="M761.67,36.44c0-13.43,6.19-23.31,20.14-23.31c14.22,0,20.41,9.88,20.41,23.31v47.14
		c0,13.43-6.19,23.31-20.41,23.31c-13.96,0-20.14-9.88-20.14-23.31V36.44z M767.72,83.97c0,10.01,3.95,17.38,14.09,17.38
		c10.27,0,14.35-7.37,14.35-17.38V36.04c0-10.01-4.08-17.38-14.35-17.38c-10.14,0-14.09,7.37-14.09,17.38V83.97z"/>
	<path class="st0" d="M817.76,106.09h-5.53V13.92h7.9l27.65,77.81V13.92h5.53v92.17h-6.72l-28.83-82.16V106.09z"/>
	<path class="st0" d="M448.98,132.2c14.22,0,20.41,9.35,20.41,22.91v46.35c0,13.56-6.19,22.91-20.41,22.91H428.7V132.2H448.98z
		 M448.85,218.84c10.27,0,14.48-6.98,14.48-17.12v-46.87c0-10.14-4.34-17.12-14.48-17.12h-14.09v81.11H448.85z"/>
	<path class="st0" d="M488.08,203.96l-4.61,20.41h-5.53l20.15-92.3h8.82l20.54,92.3h-6.06l-4.61-20.41H488.08z M489.01,198.69h26.86
		l-13.56-59.65L489.01,198.69z"/>
	<path class="st0" d="M545.18,188.95l-20.67-56.75h6.32l17.64,48.45l17.64-48.45h5.92l-20.8,56.75v35.42h-6.06V188.95z"/>
</g>
</svg>
